<?xml version="1.0" encoding="UTF-8"?>
<svg version="1.1" xmlns="http://www.w3.org/2000/svg" width="512" height="512">
<path d="M0 0 C0.9473703 -0.01004562 1.8947406 -0.02009125 2.87081909 -0.03044128 C4.41994492 -0.03918777 4.41994492 -0.03918777 6.00036621 -0.04811096 C7.09358185 -0.05789474 8.18679749 -0.06767853 9.31314087 -0.07775879 C12.93478178 -0.10769521 16.55638569 -0.12909699 20.17810059 -0.14796448 C22.0366996 -0.15782222 22.0366996 -0.15782222 23.93284607 -0.1678791 C29.14518253 -0.19376437 34.35751358 -0.21724998 39.56989288 -0.23237514 C47.0119044 -0.25423041 54.45318985 -0.29609765 61.89491129 -0.36581272 C67.77671895 -0.41901961 73.65830401 -0.43888726 79.54032898 -0.44757271 C82.03128176 -0.45610705 84.52222234 -0.47487471 87.01301575 -0.50431633 C113.21194549 -0.79724373 113.21194549 -0.79724373 123.15283203 7.78442383 C130.2336414 15.17001018 131.86816261 23.68449247 131.80529785 33.58030701 C131.81391342 34.68721893 131.82252899 35.79413086 131.83140564 36.93458557 C131.85399487 40.57137342 131.84733913 44.20738628 131.83825684 47.84422302 C131.84349553 50.38573433 131.84977291 52.92724369 131.85704041 55.46875 C131.86743173 60.78712647 131.86323339 66.10522492 131.8482666 71.42356873 C131.83135019 77.54896661 131.84718415 83.67365154 131.87948948 89.79897159 C131.90951938 95.71981929 131.91134668 101.6404474 131.90199089 107.56137276 C131.90117321 110.06788624 131.9080014 112.57441477 131.92276192 115.08088493 C131.94026845 118.59163062 131.92561202 122.10087062 131.9029541 125.61155701 C131.9204924 127.14942116 131.9204924 127.14942116 131.93838501 128.71835327 C131.82820386 137.15017038 128.92122327 142.84313304 124.58435059 149.91062927 C118.68254943 155.65292229 111.85768385 159.26422583 103.60617065 159.30780029 C102.67273834 159.3149556 101.73930603 159.3221109 100.77758789 159.32948303 C99.25180115 159.33351639 99.25180115 159.33351639 97.69519043 159.33763123 C96.61826935 159.34420242 95.54134827 159.35077362 94.43179321 159.35754395 C90.86545745 159.37726427 87.2991638 159.38893769 83.73278809 159.39891052 C82.5132909 159.40298605 81.29379372 159.40706158 80.03734207 159.4112606 C73.58084533 159.43211739 67.12436982 159.44642002 60.66784668 159.45579529 C54.01002711 159.46584259 47.35258919 159.50124072 40.69487572 159.54096699 C35.56632887 159.56715596 30.43786153 159.57548926 25.30925369 159.57907677 C22.8557573 159.58393791 20.40226435 159.5955383 17.94883347 159.61411476 C14.50724768 159.63855041 11.06652452 159.63753242 7.62487793 159.63059998 C6.11730927 159.64981506 6.11730927 159.64981506 4.57928467 159.66941833 C-4.98407075 159.59954292 -12.92979936 156.82575797 -19.97033691 150.22703552 C-24.95561148 144.36656831 -27.83359108 137.28897336 -27.87532043 129.61557007 C-27.88247574 128.70882538 -27.88963104 127.80208069 -27.89700317 126.86785889 C-27.89969208 125.88029099 -27.90238098 124.89272308 -27.90515137 123.87522888 C-27.91172256 122.8291748 -27.91829376 121.78312073 -27.92506409 120.70536804 C-27.94478367 117.24123562 -27.9564584 113.77714658 -27.96643066 110.31297302 C-27.97050619 109.12782167 -27.97458172 107.94267033 -27.97878075 106.7216053 C-27.99963839 100.44550374 -28.01393998 94.16942401 -28.02331543 87.89329529 C-28.03436327 81.42615151 -28.06874578 74.95935336 -28.10848713 68.4923315 C-28.1346977 63.50700259 -28.14301137 58.52175536 -28.14659691 53.5363636 C-28.1514534 51.15347021 -28.16304045 48.77058023 -28.1816349 46.38775444 C-28.20611408 43.04215932 -28.20504461 39.69744958 -28.19812012 36.35179138 C-28.21093018 35.3783931 -28.22374023 34.40499481 -28.23693848 33.40209961 C-28.16360095 23.61699071 -25.50001759 15.04509122 -18.66174316 7.88328552 C-12.95873865 2.80242696 -7.67362051 0.06419067 0 0 Z M-7.72814941 25.16062927 C-9.41705041 28.01762027 -9.97949456 30.09078087 -9.98884583 33.3976593 C-9.99593063 34.2359024 -10.00301544 35.07414551 -10.01031494 35.93778992 C-10.00783752 36.8490564 -10.00536011 37.76032288 -10.00280762 38.69920349 C-10.00791855 39.6655069 -10.01302948 40.6318103 -10.01829529 41.62739563 C-10.03220129 44.82343226 -10.03123362 48.01925347 -10.02893066 51.21531677 C-10.03281728 53.43725159 -10.03715188 55.65918567 -10.04191589 57.88111877 C-10.04938046 62.53990588 -10.04908527 67.1986172 -10.04382324 71.85740662 C-10.038031 77.82504067 -10.05495274 83.79236412 -10.07816792 89.75994682 C-10.09290693 94.34962271 -10.09377667 98.93922386 -10.09065819 103.52891922 C-10.0911714 105.72892497 -10.09640914 107.92893489 -10.10647011 110.12891769 C-10.11881897 113.2072384 -10.11205161 116.28495482 -10.10046387 119.36326599 C-10.1081076 120.27048401 -10.11575134 121.17770203 -10.12362671 122.1124115 C-10.06798605 128.80646556 -8.8521881 133.03659058 -3.97814941 137.91062927 C2.12427655 142.13538571 8.20237381 142.45691427 15.36901855 142.43528748 C16.2529126 142.44039841 17.13680664 142.44550934 18.04748535 142.45077515 C20.9530729 142.46461113 23.85842162 142.46371882 26.76403809 142.46141052 C28.79513638 142.46530088 30.82623387 142.46963625 32.85733032 142.47439575 C37.10897461 142.48184519 41.36053584 142.48157603 45.61218262 142.4763031 C51.04472828 142.47051169 56.47693265 142.48743789 61.90942192 142.51064777 C66.10289478 142.52542202 70.29628615 142.52625176 74.48978043 142.52313805 C76.49193116 142.52364945 78.49408667 142.52885302 80.49621201 142.53894997 C83.30299426 142.55136809 86.10912079 142.54449049 88.91589355 142.53294373 C90.14126328 142.54440933 90.14126328 142.54440933 91.39138794 142.55610657 C97.39341848 142.50187886 104.11268488 141.82433518 108.86787224 137.81491566 C114.10565806 131.84383566 114.57020356 126.38316911 114.56237793 118.81565857 C114.56909515 117.88168243 114.57581238 116.9477063 114.58273315 115.98542786 C114.6017103 112.90184692 114.60563732 109.8184837 114.60778809 106.73484802 C114.61421654 104.58639436 114.62094493 102.43794157 114.62796021 100.28948975 C114.6399325 95.78631054 114.6436411 91.28320804 114.64245605 86.78001404 C114.64225295 81.01990844 114.66954712 75.26029667 114.70400047 69.50030804 C114.72627849 65.06238563 114.7302933 60.62458186 114.7292366 56.18660927 C114.7315915 54.06360486 114.74040871 51.94059712 114.75590134 49.81764793 C114.77557776 46.84267858 114.76971632 43.86877137 114.75769043 40.89378357 C114.76892944 40.02337936 114.78016846 39.15297516 114.79174805 38.25619507 C114.73212594 32.42868839 113.53236997 28.03896428 110.27185059 23.16062927 C104.38456638 17.42430107 98.84445487 16.86360766 91.00280762 16.88597107 C90.07697876 16.88086014 89.1511499 16.87574921 88.19726562 16.8704834 C85.14133207 16.8566007 82.0856244 16.8575433 79.02966309 16.85984802 C76.90123409 16.85596015 74.77280588 16.85162529 72.64437866 16.84686279 C68.18407679 16.83940326 63.72385407 16.83968979 59.2635498 16.84495544 C53.55498924 16.85074733 47.84675342 16.83382441 42.13824654 16.81061077 C37.74240228 16.79585977 33.34663596 16.79500365 28.95077133 16.7981205 C26.84648877 16.7976079 24.74220178 16.79238168 22.63794327 16.78230858 C19.69164348 16.76993626 16.74597277 16.77674102 13.79968262 16.78831482 C12.93503387 16.78067108 12.07038513 16.77302734 11.17953491 16.76515198 C3.13158866 16.83483095 -2.33415651 18.84195187 -7.72814941 25.16062927 Z " fill="#67B7EB" transform="translate(378.7281494140625,172.83937072753906)"/>
<path d="M0 0 C3.3156931 2.57981305 4.82375026 4.06657341 5.61231995 8.24287415 C5.60691696 9.46894882 5.60151398 10.6950235 5.59594727 11.95825195 C5.60203506 12.9788269 5.60203506 12.9788269 5.60824585 14.02001953 C5.61374763 15.49102612 5.60779783 16.96211118 5.59158516 18.43303871 C5.56608671 20.76753677 5.57098791 23.10027564 5.58348083 25.43486023 C5.60420373 30.39426792 5.58457898 35.35312848 5.5625 40.3125 C5.5413422 46.05211131 5.53694742 51.79115234 5.56300163 57.53075218 C5.56634286 59.81984962 5.54520635 62.10783808 5.52259827 64.39680481 C5.31705641 74.92737563 5.31705641 74.92737563 10 84 C16.15858417 89.25185309 23.01388221 88.60187136 30.80859375 88.609375 C32.14382414 88.62437498 33.47903609 88.64110593 34.81422424 88.65948486 C38.30761622 88.7029679 41.80075801 88.72311453 45.29437256 88.73822021 C48.86762165 88.75786072 52.44060323 88.79982255 56.01367188 88.83984375 C63.00901327 88.91493861 70.00434441 88.96535501 77 89 C76.98889694 87.94399597 76.97779388 86.88799194 76.96635437 85.79998779 C76.86504184 75.85321568 76.79006513 65.90654809 76.74093914 55.95937729 C76.7148338 50.84525822 76.67941846 45.73155531 76.62280273 40.61767578 C76.56851664 35.68340205 76.53858653 30.74952884 76.52561378 25.81497955 C76.51636779 23.93144677 76.49831244 22.04793616 76.47134972 20.16457367 C76.43510396 17.52817749 76.43005267 14.89344077 76.43237305 12.25683594 C76.41439667 11.47640427 76.39642029 10.6959726 76.37789917 9.89189148 C76.41467202 6.03607654 76.65606329 4.36397921 79.34797668 1.51519775 C82.61215711 -0.34974771 84.29536171 -0.61743971 88 0 C90.64607239 1.40661621 90.64607239 1.40661621 93 4 C93.76489682 7.32140741 93.69315404 10.59799108 93.6628418 13.99414062 C93.67320969 15.0093277 93.68357758 16.02451477 93.69425964 17.07046509 C93.72140007 20.43280291 93.7116466 23.79384169 93.69921875 27.15625 C93.70512794 29.4983354 93.71237478 31.84041778 93.72090149 34.18249512 C93.73279732 39.09871106 93.72605395 44.01447482 93.70678711 48.93066406 C93.68399584 55.20748199 93.71056635 61.48293749 93.75184917 67.75962067 C93.77753666 72.6018176 93.77481573 77.44369393 93.76395607 82.28593445 C93.762476 84.59821299 93.77008219 86.91051694 93.78720665 89.22273254 C93.93924411 113.74826807 93.93924411 113.74826807 85.22685242 124.10852051 C77.94144024 131.30688566 68.59199041 133.43802748 58.6231842 133.55578613 C57.51132248 133.54768921 56.39946075 133.53959229 55.25390625 133.53125 C54.08037094 133.5350769 52.90683563 133.53890381 51.69773865 133.54284668 C49.23801812 133.54555058 46.77826807 133.53829707 44.31860352 133.52148438 C40.5483468 133.49991905 36.77996648 133.52140894 33.00976562 133.546875 C30.61197496 133.5442341 28.21418547 133.53911405 25.81640625 133.53125 C24.69037491 133.53934692 23.56434357 133.54744385 22.40419006 133.55578613 C20.83621925 133.53687317 20.83621925 133.53687317 19.23657227 133.51757812 C18.31932877 133.51439575 17.40208527 133.51121338 16.45704651 133.50793457 C13.21574248 132.83787384 12.03664524 131.56162507 10 129 C9 125.5625 9 125.5625 9 122 C10.76641172 119.19810554 12.03049822 117.48475089 15 116 C16.56623288 115.9016784 18.13650736 115.86448372 19.70581055 115.8581543 C21.17324959 115.84760262 21.17324959 115.84760262 22.67033386 115.83683777 C23.73174088 115.83267349 24.79314789 115.82850922 25.88671875 115.82421875 C28.12696245 115.8010136 30.36719685 115.77689599 32.60742188 115.75195312 C36.14483801 115.71688064 39.68191384 115.68752124 43.21948242 115.67407227 C46.62981645 115.65856316 50.0391501 115.61832413 53.44921875 115.57421875 C55.02614754 115.57708138 55.02614754 115.57708138 56.63493347 115.58000183 C62.94340682 115.47534687 66.93762195 114.88628265 72 111 C73.04521599 109.3613111 74.05343362 107.69758354 75 106 C74.27274216 106.00888245 73.54548431 106.01776489 72.79618835 106.0269165 C65.897835 106.10750734 58.99955321 106.16818848 52.1008482 106.20724869 C48.55522549 106.22800619 45.00999606 106.25610231 41.46459961 106.30175781 C37.37610384 106.35406955 33.28801255 106.37304276 29.19921875 106.390625 C27.94356613 106.41127014 26.68791351 106.43191528 25.39421082 106.45318604 C13.42076876 106.45619955 4.76493454 103.74601437 -3.90234375 95.3671875 C-10.07420065 88.4022987 -12.2470879 79.86234764 -12.25878906 70.65942383 C-12.2622937 69.96256973 -12.26579834 69.26571564 -12.26940918 68.54774475 C-12.27814035 66.2674026 -12.27241012 63.98737599 -12.265625 61.70703125 C-12.26697367 60.11236004 -12.26891589 58.51768922 -12.27142334 56.92301941 C-12.27436252 53.59195006 -12.27011419 50.26098841 -12.26074219 46.92993164 C-12.24932043 42.66278217 -12.25593187 38.39588356 -12.26788712 34.12874317 C-12.27511461 30.84049082 -12.27281418 27.55229796 -12.26763153 24.26404381 C-12.26629894 22.69038551 -12.26792907 21.11672179 -12.27259064 19.54306984 C-12.27767361 17.34603165 -12.26992231 15.14940047 -12.25878906 12.95239258 C-12.25719788 11.70331619 -12.25560669 10.45423981 -12.25396729 9.16731262 C-12.01045891 6.13043658 -11.71759716 4.47886297 -10 2 C-6.24952518 -0.50031654 -4.44143734 -0.53603554 0 0 Z " fill="#8BB4F6" transform="translate(245,199)"/>
<path d="M0 0 C0.70616959 -0.0049649 1.41233917 -0.00992981 2.13990784 -0.01504517 C4.46893293 -0.0296151 6.79789001 -0.03645869 9.12695312 -0.04199219 C10.74833172 -0.04774612 12.3697103 -0.05350382 13.99108887 -0.05926514 C17.38712887 -0.06975916 20.78314529 -0.07561287 24.17919922 -0.07910156 C28.53055993 -0.08459532 32.88160916 -0.10864864 37.23287201 -0.13707352 C40.58031123 -0.1556921 43.92767511 -0.16090498 47.27516174 -0.16243744 C48.87953909 -0.16546422 50.4839151 -0.17349365 52.08824158 -0.18662262 C54.33120549 -0.20367384 56.57340386 -0.20180603 58.81640625 -0.1953125 C60.09229614 -0.19895813 61.36818604 -0.20260376 62.68273926 -0.20635986 C66.13277556 0.18671943 67.52765755 0.67256052 69.90820312 3.16113281 C70.98666278 7.04358757 71.30044254 9.23214471 69.72070312 12.97363281 C67.75990735 15.34011048 66.74789417 16.07643364 63.90820312 17.16113281 C60.83459473 17.42614746 60.83459473 17.42614746 57.18359375 17.44824219 C56.18286079 17.45849174 56.18286079 17.45849174 55.16191101 17.46894836 C53.71764987 17.48250643 52.27334112 17.49157893 50.82902527 17.49665833 C48.54230114 17.50496326 46.25597333 17.52548176 43.96936035 17.54919434 C38.29148717 17.60554423 32.61351764 17.64079944 26.93548584 17.67681885 C22.13438014 17.70808053 17.33346688 17.74728667 12.53251648 17.79707336 C10.28129485 17.81712151 8.03022289 17.82545663 5.77893066 17.83337402 C4.39688575 17.84634803 3.01484582 17.85986858 1.6328125 17.87402344 C-0.17443298 17.88496033 -0.17443298 17.88496033 -2.01818848 17.89611816 C-6.09714579 18.24781666 -8.15778562 19.09369138 -10.84179688 22.16113281 C-12.66542103 26.53783079 -12.89120874 30.49167096 -12.09179688 35.16113281 C-10.41453098 38.53637159 -8.16940954 40.63632282 -4.75039673 42.30142212 C-1.92244171 43.21589715 0.29284801 43.41242416 3.25830078 43.41650391 C4.30353912 43.42346283 5.34877747 43.43042175 6.4256897 43.43759155 C7.54655975 43.43659454 8.66742981 43.43559753 9.82226562 43.43457031 C12.21680147 43.45486913 14.61133268 43.47572009 17.00585938 43.49707031 C20.7645254 43.51960369 24.52300796 43.53611688 28.28173828 43.54199219 C31.92058173 43.5515744 35.55860749 43.58543123 39.19726562 43.62207031 C40.3059903 43.61702484 41.41471497 43.61197937 42.55703735 43.60678101 C53.40159594 43.74194415 62.15415478 46.42285405 70.03320312 54.02050781 C72.78434255 57.16139199 74.50735781 60.24338412 75.90820312 64.16113281 C76.1428125 64.78632813 76.37742187 65.41152344 76.61914062 66.05566406 C79.17051177 74.19023052 77.82136707 82.63779363 74.06445312 90.16503906 C69.96292296 97.2457212 64.42374705 101.67769048 56.71440125 104.21035767 C52.90305434 105.16241896 49.67073717 105.42708577 45.7512207 105.45166016 C45.07387375 105.45837738 44.39652679 105.4650946 43.69865417 105.47201538 C41.48327094 105.4908518 39.26819243 105.49491094 37.05273438 105.49707031 C35.50290302 105.50350386 33.95307287 105.51023263 32.40324402 105.51724243 C29.16634298 105.52917597 25.92954842 105.53292687 22.69262695 105.53173828 C18.5463522 105.5315343 14.40075674 105.55893487 10.25464344 105.5932827 C7.05902464 105.61551116 3.86357112 105.61957723 0.66788292 105.61851883 C-0.8611417 105.62087712 -2.39017071 105.62971356 -3.91911888 105.64518356 C-6.0542338 105.66478072 -8.18785917 105.65903423 -10.32299805 105.64697266 C-12.14331795 105.65124771 -12.14331795 105.65124771 -14.00041199 105.65560913 C-17.70247623 105.06345281 -18.85109668 104.111063 -21.09179688 101.16113281 C-22.24891496 97.53549615 -22.42696777 95.89850879 -20.84179688 92.41113281 C-19.09179688 90.16113281 -19.09179688 90.16113281 -16.09179688 88.16113281 C-13.26579285 87.90284729 -13.26579285 87.90284729 -9.7878418 87.88989258 C-8.48606491 87.87970596 -7.18428802 87.86951935 -5.84306335 87.85902405 C-5.14742468 87.85808306 -4.451786 87.85714207 -3.73506737 87.85617256 C-1.55287551 87.85250649 0.62886281 87.83577261 2.81095886 87.81541443 C9.01459296 87.76003394 15.21829455 87.72936587 21.42211914 87.70483398 C25.21882253 87.68891643 29.01520572 87.65865074 32.81174278 87.6200695 C34.25532303 87.60845293 35.69896067 87.60248945 37.14258766 87.60238838 C39.1671252 87.60219531 41.19163165 87.58236151 43.21606445 87.56176758 C44.36617508 87.55669693 45.51628571 87.55162628 46.70124817 87.54640198 C51.30138353 86.99376238 54.70250808 85.5275872 57.78320312 82.03613281 C59.73956901 77.0365311 59.73956901 72.28573453 57.78320312 67.28613281 C54.82965845 63.93878218 51.85266233 62.3679674 47.35855103 61.8899231 C44.2012678 61.78407963 41.05549634 61.7726025 37.89648438 61.79003906 C35.50520695 61.77265002 33.11393094 61.75506571 30.72265625 61.73730469 C26.97498888 61.72725864 23.22741657 61.72362975 19.47973633 61.7253418 C15.84753596 61.72174912 12.21605547 61.69431595 8.58398438 61.66503906 C7.47839676 61.67322159 6.37280914 61.68140411 5.23371887 61.68983459 C-4.59129675 61.59689721 -13.53974339 59.26638995 -21.30273438 53.00488281 C-28.89806531 45.17738018 -30.46054569 37.30005266 -30.37304688 26.77832031 C-29.77006755 19.02333627 -26.72747386 12.55178037 -21.09179688 7.16113281 C-13.84235089 2.15135306 -8.82346806 0.04721933 0 0 Z " fill="#87BDF7" transform="translate(147.091796875,199.8388671875)"/>
<path d="M0 0 C1.06863785 -0.01283524 2.1372757 -0.02567047 3.23829651 -0.03889465 C4.39449997 -0.04628159 5.55070343 -0.05366852 6.74194336 -0.0612793 C7.93476425 -0.06935104 9.12758514 -0.07742279 10.35655212 -0.08573914 C12.88596137 -0.09958192 15.41538931 -0.11030319 17.94482422 -0.11816406 C21.7922777 -0.13532185 25.63885964 -0.17920175 29.48608398 -0.22338867 C31.94636414 -0.23352062 34.40665159 -0.24203515 36.86694336 -0.2487793 C38.57999413 -0.27504143 38.57999413 -0.27504143 40.32765198 -0.30183411 C50.11986738 -0.27556867 58.22672288 2.18202158 65.94897461 8.34106445 C74.27489481 16.73845178 76.0816868 26.41446583 76.10522461 37.7512207 C76.11520981 39.43064507 76.11520981 39.43064507 76.12539673 41.14399719 C76.13550421 43.51004397 76.14021434 45.87611915 76.13989258 48.2421875 C76.14425117 51.83487857 76.18055286 55.42632604 76.21850586 59.01879883 C76.22437753 61.32543529 76.22834458 63.63207754 76.23022461 65.9387207 C76.24459564 67.00056076 76.25896667 68.06240082 76.27377319 69.15641785 C76.20628026 80.35411469 73.06098898 88.92042266 65.28100586 97.0090332 C58.96949602 102.45675942 51.89507292 105.26361741 43.60864258 105.35400391 C42.58012177 105.36683914 41.55160095 105.37967438 40.49191284 105.39289856 C39.38461823 105.40028549 38.27732361 105.40767242 37.13647461 105.4152832 C35.98946075 105.42335495 34.8424469 105.4314267 33.66067505 105.43974304 C31.23139959 105.45357188 28.80210481 105.46429939 26.37280273 105.47216797 C22.67906245 105.48934028 18.98622675 105.53323436 15.29272461 105.57739258 C12.92814783 105.58752364 10.56356347 105.59603845 8.19897461 105.6027832 C7.10382538 105.62029129 6.00867615 105.63779938 4.88034058 105.65583801 C-5.56277757 105.62666954 -14.63915106 102.55678202 -22.23071289 95.17700195 C-29.27573057 86.45683563 -30.54519921 78.90583597 -30.56665039 67.91137695 C-30.57330719 66.7228009 -30.57996399 65.53422485 -30.58682251 64.30963135 C-30.59693201 61.79815209 -30.60164006 59.28664607 -30.60131836 56.77514648 C-30.60568181 52.95421474 -30.64199535 49.13444755 -30.67993164 45.3137207 C-30.68580222 42.86711004 -30.68977 40.42049393 -30.69165039 37.97387695 C-30.70602142 36.84125427 -30.72039246 35.70863159 -30.73519897 34.54168701 C-30.67464207 23.90289911 -27.85603633 15.93004181 -20.52368164 8.1574707 C-14.71671395 3.14191257 -7.65962191 0.08019494 0 0 Z M-10.48071289 23.48950195 C-14.26087539 29.2947515 -14.53924016 35.37217828 -14.53149414 42.07543945 C-14.53577927 42.90983551 -14.54006439 43.74423157 -14.54447937 44.60391235 C-14.55019432 46.36036273 -14.55074396 48.11683675 -14.54638672 49.87329102 C-14.54323014 52.53744564 -14.56670924 55.2004845 -14.59204102 57.86450195 C-14.59431489 59.5806464 -14.5950171 61.2967938 -14.59399414 63.01293945 C-14.60320389 63.7976059 -14.61241364 64.58227234 -14.62190247 65.39071655 C-14.56965139 71.74541105 -13.56522001 78.24825666 -9.51196289 83.33325195 C-8.63024414 83.9984082 -8.63024414 83.9984082 -7.73071289 84.67700195 C-7.14290039 85.14106445 -6.55508789 85.60512695 -5.94946289 86.08325195 C-2.85351152 88.05340283 -0.16458172 88.31140686 3.4050293 88.35400391 C4.34320496 88.36683914 5.28138062 88.37967438 6.24798584 88.39289856 C7.26048401 88.40028549 8.27298218 88.40767242 9.31616211 88.4152832 C10.88300751 88.42739082 10.88300751 88.42739082 12.48150635 88.43974304 C14.69395287 88.45357831 16.90642068 88.46430296 19.11889648 88.47216797 C22.49235813 88.48936468 25.86483563 88.53325493 29.23803711 88.57739258 C31.38907158 88.5875212 33.54011437 88.59603677 35.69116211 88.6027832 C37.19776398 88.62904533 37.19776398 88.62904533 38.73480225 88.65583801 C44.98055678 88.6366198 48.67241942 87.85568768 53.76928711 84.17700195 C57.52546052 80.12428853 58.88424319 77.09638338 58.93041992 71.6171875 C58.94002747 70.6958049 58.94963501 69.7744223 58.95953369 68.82511902 C58.96378357 67.83135757 58.96803345 66.83759613 58.97241211 65.8137207 C58.97811218 64.78898148 58.98381226 63.76424225 58.98968506 62.70845032 C58.99913426 60.53887972 59.00566872 58.36929478 59.00952148 56.19970703 C59.01921876 52.887846 59.05023992 49.57660773 59.08178711 46.26489258 C59.08831817 44.1561723 59.09356823 42.04744759 59.09741211 39.9387207 C59.11593231 38.45718758 59.11593231 38.45718758 59.13482666 36.94572449 C59.11517325 30.84990209 58.58642857 26.19485578 54.23413086 21.5324707 C50.17050891 18.4249951 48.11854146 17.05766313 43.04760742 17 C42.06608704 16.98716476 41.08456665 16.97432953 40.07330322 16.96110535 C39.00875916 16.95371841 37.94421509 16.94633148 36.84741211 16.9387207 C35.7546698 16.93064896 34.66192749 16.92257721 33.53607178 16.91426086 C31.21929515 16.90041176 28.90249805 16.88969332 26.58569336 16.88183594 C23.04753751 16.86463926 19.51031975 16.82076118 15.97241211 16.77661133 C13.72241899 16.76648317 11.47241791 16.75796746 9.22241211 16.7512207 C8.16596497 16.73371262 7.10951782 16.71620453 6.02105713 16.69816589 C-1.64054972 16.72071281 -5.08939319 17.94842337 -10.48071289 23.48950195 Z " fill="#87BDF7" transform="translate(32.230712890625,199.822998046875)"/>
<path d="M0 0 C1.79833984 1.30226135 1.79833984 1.30226135 3.7109375 3.03735352 C4.41395996 3.67496613 5.11698242 4.31257874 5.84130859 4.96951294 C9.29347188 8.21665279 12.66161676 11.53864203 16 14.90234375 C16.7211499 15.6249086 17.4422998 16.34747345 18.18530273 17.0919342 C20.45925415 19.37142604 22.72967954 21.6543924 25 23.9375 C26.55315235 25.49567506 28.10653567 27.05361993 29.66015625 28.61132812 C33.44277586 32.40489759 37.2225169 36.20131615 41 40 C46.11674229 35.72511753 50.8713602 31.23800876 55.54296875 26.484375 C56.96015461 25.05455681 58.37747627 23.6248732 59.79492188 22.1953125 C62.00217449 19.96315401 64.20778099 17.72941392 66.41088867 15.49316406 C68.55470839 13.31918983 70.70466638 11.15143805 72.85546875 8.984375 C73.51282516 8.31355896 74.17018158 7.64274292 74.84745789 6.95159912 C75.77411003 6.01987885 75.77411003 6.01987885 76.71948242 5.06933594 C77.2579631 4.52339783 77.79644379 3.97745972 78.35124207 3.41497803 C81.07731432 1.07543972 83.39022724 0.09081722 86.9375 -0.4375 C90 0 90 0 92.875 2.0625 C95 5 95 5 95.875 8.1875 C93.31734179 19.33158222 77.89296696 30.21765994 69.9375 38.125 C68.48479174 39.57268159 67.03231597 41.02059652 65.58007812 42.46875 C62.05605814 45.98186066 58.52891363 49.49180531 55 53 C59.35449678 58.21364209 63.93884653 63.05963491 68.76953125 67.83203125 C69.49113937 68.54985275 70.2127475 69.26767426 70.95622253 70.00724792 C73.23922179 72.27812372 75.52545 74.54570432 77.8125 76.8125 C80.84269012 79.81616214 83.86959748 82.82307668 86.89453125 85.83203125 C87.59238235 86.52158401 88.29023346 87.21113678 89.00923157 87.92158508 C89.6504747 88.55952499 90.29171783 89.1974649 90.95239258 89.85473633 C91.51831619 90.41542313 92.08423981 90.97610992 92.66731262 91.55378723 C94.67764446 93.73536982 94.99150409 94.86972934 95.1875 97.875 C95.00235491 100.96075154 94.77840309 102.51023567 93 105 C90.5641221 106.8945717 89.02965815 106.99920481 85.93139648 107.08227539 C80.18828302 106.15211371 76.64056386 101.37264664 72.78515625 97.37109375 C71.92941513 96.50686295 71.07367401 95.64263214 70.19200134 94.75221252 C67.46774215 91.99442446 64.76510716 89.21649406 62.0625 86.4375 C60.2168833 84.56178381 58.3698932 82.68741791 56.52148438 80.81445312 C51.99828204 76.22517249 47.49264793 71.61918523 43 67 C39.83382169 68.39825705 37.72545537 70.03824492 35.3046875 72.5 C34.24338623 73.57121094 34.24338623 73.57121094 33.16064453 74.6640625 C32.40638184 75.43492187 31.65211914 76.20578125 30.875 77 C30.09108887 77.79148437 29.30717773 78.58296875 28.49951172 79.3984375 C25.99482729 81.92755544 23.49666827 84.46296989 21 87 C17.71406369 90.33905768 14.42163914 93.67151255 11.125 97 C10.3707373 97.77085937 9.61647461 98.54171875 8.83935547 99.3359375 C7.7780542 100.40714844 7.7780542 100.40714844 6.6953125 101.5 C5.7674292 102.44359375 5.7674292 102.44359375 4.82080078 103.40625 C1.59003509 106.23414466 -0.2209184 107.04100429 -4.5625 106.8125 C-8 106 -8 106 -9.875 104.875 C-11.68136899 101.86438501 -11.94075294 99.49557632 -12 96 C-8.88766319 90.316647 -4.31557553 86.05859233 0.265625 81.5390625 C1.05902283 80.74849457 1.85242065 79.95792664 2.66986084 79.1434021 C5.19189761 76.63251324 7.72081739 74.12868876 10.25 71.625 C11.96660562 69.91843112 13.68275659 68.21140478 15.3984375 66.50390625 C19.5937074 62.33062523 23.79464244 58.16311432 28 54 C26.5891884 50.78266915 24.91288249 48.69362665 22.39233398 46.26049805 C21.65494492 45.54262619 20.91755585 44.82475433 20.15782166 44.08512878 C19.36195145 43.31840347 18.56608124 42.55167816 17.74609375 41.76171875 C16.07038097 40.1210375 14.39526912 38.47974232 12.72070312 36.83789062 C10.07814035 34.25726867 7.4313294 31.68154431 4.77368164 29.11645508 C2.2092302 26.63671596 -0.33590964 24.13842994 -2.87890625 21.63671875 C-3.67680069 20.87606613 -4.47469513 20.11541351 -5.29676819 19.33171082 C-11.37127073 13.31436438 -11.37127073 13.31436438 -12.12084961 9.13989258 C-11.96764918 5.15946691 -10.81856969 3.73803913 -8 1 C-4.98221063 -0.50889469 -3.37677363 -0.50026276 0 0 Z " fill="#88BDF7" transform="translate(389,199)"/>
<path d="M0 0 C2.34375 1.0234375 2.34375 1.0234375 4 2 C4.08071788 4.79224073 4.14035408 7.58216566 4.1875 10.375 C4.21263672 11.1690625 4.23777344 11.963125 4.26367188 12.78125 C4.29004405 14.85586148 4.15486462 16.93100865 4 19 C0.2632157 21.49118953 -1.74451819 21.2065226 -6.1875 21.125 C-7.45980469 21.10695313 -8.73210937 21.08890625 -10.04296875 21.0703125 C-11.01878906 21.04710937 -11.99460938 21.02390625 -13 21 C-13 19.68 -13 18.36 -13 17 C-8.38 17 -3.76 17 1 17 C-0.01707287 15.75024909 -0.01707287 15.75024909 -2.14453125 15.97265625 C-3.91546334 16.03229232 -5.68630223 16.09476744 -7.45703125 16.16015625 C-10.18356119 15.98843931 -11.71676859 15.47255599 -14 14 C-15.60813266 10.78373469 -15.45492615 7.48776713 -15 4 C-12.04078289 -1.63660401 -5.5921395 -0.70724117 0 0 Z M-11 4 C-11 6.64 -11 9.28 -11 12 C-9.18757948 12.02687279 -7.37504767 12.04633715 -5.5625 12.0625 C-4.04849609 12.07990234 -4.04849609 12.07990234 -2.50390625 12.09765625 C-0.05978933 12.28612676 -0.05978933 12.28612676 1 11 C1.16666667 8 1.16666667 8 1 5 C-0.05978933 3.71387324 -0.05978933 3.71387324 -2.50390625 3.90234375 C-3.51324219 3.91394531 -4.52257812 3.92554688 -5.5625 3.9375 C-6.57441406 3.94652344 -7.58632812 3.95554687 -8.62890625 3.96484375 C-9.41136719 3.97644531 -10.19382813 3.98804688 -11 4 Z " fill="#8FA3F3" transform="translate(183,317)"/>
<path d="M0 0 C2.6875 1.625 2.6875 1.625 4 4 C4 5.98 4 7.96 4 10 C-0.95 10.33 -5.9 10.66 -11 11 C-6.71 11.33 -2.42 11.66 2 12 C1.67 13.32 1.34 14.64 1 16 C-0.91635217 16.05423638 -2.83314925 16.09289963 -4.75 16.125 C-5.81734375 16.14820313 -6.8846875 16.17140625 -7.984375 16.1953125 C-10.96097068 16.00252781 -12.57897463 15.7082936 -15 14 C-16.17664871 10.47005387 -16.19850603 7.70544587 -16 4 C-12.36016305 -1.45975543 -6.04295018 -0.64228961 0 0 Z M-11 4 C-11.33 4.66 -11.66 5.32 -12 6 C-8.04 6 -4.08 6 0 6 C0 5.34 0 4.68 0 4 C-3.63 4 -7.26 4 -11 4 Z " fill="#8FA3F3" transform="translate(38,317)"/>
<path d="M0 0 C1.42505859 0.02320313 1.42505859 0.02320313 2.87890625 0.046875 C5.4375 0.25 5.4375 0.25 8.4375 1.25 C9.4375 3.25 9.4375 3.25 9.4375 10.25 C4.4875 10.25 -0.4625 10.25 -5.5625 10.25 C-5.5625 10.91 -5.5625 11.57 -5.5625 12.25 C-1.2725 12.25 3.0175 12.25 7.4375 12.25 C7.4375 13.57 7.4375 14.89 7.4375 16.25 C5.54239301 16.33160748 3.64625496 16.38946459 1.75 16.4375 C0.16638672 16.48970703 0.16638672 16.48970703 -1.44921875 16.54296875 C-5.01710137 16.2072207 -6.82195403 15.55545929 -9.5625 13.25 C-10.19140625 10.875 -10.19140625 10.875 -10.125 8.25 C-10.12628906 7.38375 -10.12757813 6.5175 -10.12890625 5.625 C-9.5625 3.25 -9.5625 3.25 -7.875 1.453125 C-5.05065583 -0.01629731 -3.16943694 -0.08624318 0 0 Z M-5.5625 4.25 C-5.5625 4.91 -5.5625 5.57 -5.5625 6.25 C-1.6025 6.25 2.3575 6.25 6.4375 6.25 C6.1075 5.59 5.7775 4.93 5.4375 4.25 C1.8075 4.25 -1.8225 4.25 -5.5625 4.25 Z " fill="#8FA3F3" transform="translate(207.5625,316.75)"/>
<path d="M0 0 C1.27230469 0.01804687 2.54460937 0.03609375 3.85546875 0.0546875 C5.31919922 0.08949219 5.31919922 0.08949219 6.8125 0.125 C6.8125 1.445 6.8125 2.765 6.8125 4.125 C2.1925 4.125 -2.4275 4.125 -7.1875 4.125 C-7.1875 4.785 -7.1875 5.445 -7.1875 6.125 C-6.36765625 6.07859375 -5.5478125 6.0321875 -4.703125 5.984375 C-3.62546875 5.94828125 -2.5478125 5.9121875 -1.4375 5.875 C0.16351563 5.80539062 0.16351563 5.80539062 1.796875 5.734375 C5.45052112 6.20764522 6.53478105 7.31655042 8.8125 10.125 C8 12.5625 8 12.5625 6.8125 15.125 C3.39017028 16.26577657 0.72576783 16.22315117 -2.875 16.1875 C-4.64423828 16.17396484 -4.64423828 16.17396484 -6.44921875 16.16015625 C-7.35285156 16.14855469 -8.25648438 16.13695312 -9.1875 16.125 C-9.5175 14.805 -9.8475 13.485 -10.1875 12.125 C-5.2375 12.125 -0.2875 12.125 4.8125 12.125 C4.8125 11.465 4.8125 10.805 4.8125 10.125 C3.90886719 10.15980469 3.00523437 10.19460938 2.07421875 10.23046875 C0.89472656 10.25753906 -0.28476563 10.28460938 -1.5 10.3125 C-3.25763672 10.36470703 -3.25763672 10.36470703 -5.05078125 10.41796875 C-8.1875 10.125 -8.1875 10.125 -10.11328125 8.7734375 C-11.1875 7.125 -11.1875 7.125 -11.0625 4.5625 C-9.13043614 -0.81967789 -4.93826215 -0.09061031 0 0 Z " fill="#8FA3F3" transform="translate(231.1875,316.875)"/>
<path d="M0 0 C1.40765625 0.00580078 1.40765625 0.00580078 2.84375 0.01171875 C5.5 0.3125 5.5 0.3125 9.5 2.3125 C9.5 6.2725 9.5 10.2325 9.5 14.3125 C3.76873025 17.17813487 -1.47400387 17.15977892 -7.625 15.4375 C-10.34178392 12.35847822 -10.06046219 9.68190922 -10.06640625 5.6875 C-9.5 3.3125 -9.5 3.3125 -7.80859375 1.51953125 C-5.01105775 0.05686014 -3.14481138 -0.05615735 0 0 Z M-5.5 4.3125 C-5.5 6.9525 -5.5 9.5925 -5.5 12.3125 C-3.68757948 12.33937279 -1.87504767 12.35883715 -0.0625 12.375 C1.45150391 12.39240234 1.45150391 12.39240234 2.99609375 12.41015625 C5.44021067 12.59862676 5.44021067 12.59862676 6.5 11.3125 C6.66666667 8.3125 6.66666667 8.3125 6.5 5.3125 C5.44021067 4.02637324 5.44021067 4.02637324 2.99609375 4.21484375 C1.98675781 4.22644531 0.97742188 4.23804688 -0.0625 4.25 C-1.07441406 4.25902344 -2.08632812 4.26804687 -3.12890625 4.27734375 C-3.91136719 4.28894531 -4.69382812 4.30054688 -5.5 4.3125 Z " fill="#8FA3F3" transform="translate(120.5,316.6875)"/>
<path d="M0 0 C1.40765625 -0.01160156 1.40765625 -0.01160156 2.84375 -0.0234375 C5.96845147 0.44526772 7.33360675 1.07822198 9.5 3.375 C10.03125 5.75 10.03125 5.75 10 8.375 C10.0103125 9.24125 10.020625 10.1075 10.03125 11 C9.5 13.375 9.5 13.375 7.8125 15.1640625 C5.02269505 16.62494009 3.13886995 16.77586981 0 16.75 C-1.40765625 16.76160156 -1.40765625 16.76160156 -2.84375 16.7734375 C-5.96845147 16.30473228 -7.33360675 15.67177802 -9.5 13.375 C-10.03125 11 -10.03125 11 -10 8.375 C-10.0103125 7.50875 -10.020625 6.6425 -10.03125 5.75 C-9.5 3.375 -9.5 3.375 -7.8125 1.5859375 C-5.02269505 0.12505991 -3.13886995 -0.02586981 0 0 Z M-6.5 5.375 C-6.66666667 8.375 -6.66666667 8.375 -6.5 11.375 C-5.44399622 12.65370382 -5.44399622 12.65370382 -3.03125 12.5078125 C-2.0309375 12.50523437 -1.030625 12.50265625 0 12.5 C1.50046875 12.50386719 1.50046875 12.50386719 3.03125 12.5078125 C5.44399622 12.65370382 5.44399622 12.65370382 6.5 11.375 C6.66666667 8.375 6.66666667 8.375 6.5 5.375 C5.44399622 4.09629618 5.44399622 4.09629618 3.03125 4.2421875 C2.0309375 4.24476563 1.030625 4.24734375 0 4.25 C-1.50046875 4.24613281 -1.50046875 4.24613281 -3.03125 4.2421875 C-5.44399622 4.09629618 -5.44399622 4.09629618 -6.5 5.375 Z " fill="#8FA4F3" transform="translate(155.5,316.625)"/>
<path d="M0 0 C0.99 0 1.98 0 3 0 C3 1.65 3 3.3 3 5 C3.81984375 4.96519531 4.6396875 4.93039062 5.484375 4.89453125 C6.56203125 4.86746094 7.6396875 4.84039062 8.75 4.8125 C10.35101563 4.76029297 10.35101563 4.76029297 11.984375 4.70703125 C15.40261374 5.03911403 16.75017262 5.40404533 19 8 C19.390625 10.91796875 19.390625 10.91796875 19.25 14.1875 C19.21390625 15.27417969 19.1778125 16.36085938 19.140625 17.48046875 C19.07101563 18.72763672 19.07101563 18.72763672 19 20 C18.34 20.33 17.68 20.66 17 21 C16.34 20.67 15.68 20.34 15 20 C15 16.37 15 12.74 15 9 C11.04 9 7.08 9 3 9 C3 12.63 3 16.26 3 20 C2.01 20 1.02 20 0 20 C0 13.4 0 6.8 0 0 Z " fill="#8FA4F3" transform="translate(66,312)"/>
<path d="M0 0 C1.75570312 0.04060547 1.75570312 0.04060547 3.546875 0.08203125 C4.43890625 0.11683594 5.3309375 0.15164063 6.25 0.1875 C6.25 1.5075 6.25 2.8275 6.25 4.1875 C-0.185 4.6825 -0.185 4.6825 -6.75 5.1875 C-6.75 7.1675 -6.75 9.1475 -6.75 11.1875 C-2.46 11.5175 1.83 11.8475 6.25 12.1875 C6.58 13.1775 6.91 14.1675 7.25 15.1875 C4.55893093 16.53303453 2.37834578 16.39344114 -0.625 16.4375 C-2.19894531 16.47617187 -2.19894531 16.47617187 -3.8046875 16.515625 C-7.13876571 16.14418923 -8.48783179 15.65337057 -10.75 13.1875 C-11.28125 10.8125 -11.28125 10.8125 -11.25 8.1875 C-11.2603125 7.32125 -11.270625 6.455 -11.28125 5.5625 C-10.75 3.1875 -10.75 3.1875 -9.140625 1.38671875 C-5.95806259 -0.20976272 -3.54199991 -0.10626 0 0 Z " fill="#8FA3F3" transform="translate(55.75,316.8125)"/>
<path d="M0 0 C0.9384375 -0.01675781 1.876875 -0.03351563 2.84375 -0.05078125 C6.02194467 0.38388361 7.35537315 0.91733263 9.5 3.3125 C9.890625 6.23046875 9.890625 6.23046875 9.75 9.5 C9.71390625 10.58667969 9.6778125 11.67335938 9.640625 12.79296875 C9.57101563 14.04013672 9.57101563 14.04013672 9.5 15.3125 C8.51 15.8075 8.51 15.8075 7.5 16.3125 C6.84 15.9825 6.18 15.6525 5.5 15.3125 C5.5 11.6825 5.5 8.0525 5.5 4.3125 C1.87 4.6425 -1.76 4.9725 -5.5 5.3125 C-5.83 8.6125 -6.16 11.9125 -6.5 15.3125 C-7.49 15.3125 -8.48 15.3125 -9.5 15.3125 C-9.5 11.0225 -9.5 6.7325 -9.5 2.3125 C-5.65067162 0.38783581 -4.12643585 0.01700454 0 0 Z " fill="#8FA4F3" transform="translate(98.5,316.6875)"/>
<path d="M0 0 C0.99 0 1.98 0 3 0 C3 1.65 3 3.3 3 5 C5.31 5 7.62 5 10 5 C10 6.32 10 7.64 10 9 C7.69 9 5.38 9 3 9 C3.33 11.31 3.66 13.62 4 16 C6.31 16.66 8.62 17.32 11 18 C10.67 18.99 10.34 19.98 10 21 C8.52031676 20.85950482 7.04125484 20.71245174 5.5625 20.5625 C4.73878906 20.48128906 3.91507813 20.40007812 3.06640625 20.31640625 C1 20 1 20 0 19 C-0.07205511 17.31391034 -0.08386068 15.62499341 -0.0625 13.9375 C-0.05347656 13.01839844 -0.04445313 12.09929687 -0.03515625 11.15234375 C-0.01775391 10.08693359 -0.01775391 10.08693359 0 9 C-0.99 8.67 -1.98 8.34 -3 8 C-2.67 7.01 -2.34 6.02 -2 5 C-1.34 5 -0.68 5 0 5 C0 3.35 0 1.7 0 0 Z " fill="#8FA4F3" transform="translate(9,312)"/>
<path d="M0 0 C0.99 0 1.98 0 3 0 C3.33 5.28 3.66 10.56 4 16 C5.98 16.66 7.96 17.32 10 18 C9.67 18.99 9.34 19.98 9 21 C2.25 20.25 2.25 20.25 0 18 C-0.22705078 16.12060547 -0.22705078 16.12060547 -0.1953125 13.8671875 C-0.18886719 13.06152344 -0.18242187 12.25585938 -0.17578125 11.42578125 C-0.15064453 10.16314453 -0.15064453 10.16314453 -0.125 8.875 C-0.11597656 8.02550781 -0.10695312 7.17601562 -0.09765625 6.30078125 C-0.07405647 4.20040116 -0.03818483 2.10016556 0 0 Z " fill="#8FA4F3" transform="translate(134,312)"/>
<path d="M0 0 C0.99 0.33 1.98 0.66 3 1 C3 5.62 3 10.24 3 15 C1.68 15 0.36 15 -1 15 C-1.02685412 12.68756208 -1.04632841 10.3750373 -1.0625 8.0625 C-1.07410156 6.77472656 -1.08570313 5.48695313 -1.09765625 4.16015625 C-1 1 -1 1 0 0 Z " fill="#8FA3F3" transform="translate(192,317)"/>
<path d="M0 0 C0.99 0.33 1.98 0.66 3 1 C2.67 1.99 2.34 2.98 2 4 C1.01 3.67 0.02 3.34 -1 3 C-0.67 2.01 -0.34 1.02 0 0 Z " fill="#8FA7F3" transform="translate(192,312)"/>
</svg>
